<mxfile host="app.diagrams.net" agent="Mozilla/5.0 (Windows NT 10.0; Win64; x64) AppleWebKit/537.36 (KHTML, like Gecko) Chrome/127.0.0.0 Safari/537.36" version="24.7.4" pages="2">
  <diagram id="R2lEEEUBdFMjLlhIrx00" name="ERD">
    <mxGraphModel dx="1173" dy="624" grid="1" gridSize="11" guides="1" tooltips="1" connect="1" arrows="1" fold="1" page="1" pageScale="1" pageWidth="1700" pageHeight="1100" math="0" shadow="0" extFonts="Permanent Marker^https://fonts.googleapis.com/css?family=Permanent+Marker">
      <root>
        <mxCell id="0" />
        <mxCell id="1" parent="0" />
        <mxCell id="-lJlp37_vLSV-pvQMXFQ-2" value="&lt;font style=&quot;font-size: 18px;&quot;&gt;Project&lt;/font&gt;" style="whiteSpace=wrap;html=1;align=center;" vertex="1" parent="1">
          <mxGeometry x="979" y="250" width="122" height="40" as="geometry" />
        </mxCell>
        <mxCell id="-lJlp37_vLSV-pvQMXFQ-3" value="&lt;font style=&quot;font-size: 18px;&quot;&gt;Trainer&lt;/font&gt;" style="whiteSpace=wrap;html=1;align=center;" vertex="1" parent="1">
          <mxGeometry x="187" y="250" width="132" height="40" as="geometry" />
        </mxCell>
        <mxCell id="-lJlp37_vLSV-pvQMXFQ-175" value="&lt;font style=&quot;font-size: 18px;&quot;&gt;Name&lt;/font&gt;" style="ellipse;whiteSpace=wrap;html=1;align=center;" vertex="1" parent="1">
          <mxGeometry x="33" y="66" width="121" height="62" as="geometry" />
        </mxCell>
        <mxCell id="-lJlp37_vLSV-pvQMXFQ-177" value="" style="endArrow=none;html=1;rounded=0;exitX=0.5;exitY=1;exitDx=0;exitDy=0;entryX=0.25;entryY=0;entryDx=0;entryDy=0;" edge="1" parent="1" source="-lJlp37_vLSV-pvQMXFQ-175" target="-lJlp37_vLSV-pvQMXFQ-3">
          <mxGeometry relative="1" as="geometry">
            <mxPoint x="561" y="352" as="sourcePoint" />
            <mxPoint x="721" y="352" as="targetPoint" />
          </mxGeometry>
        </mxCell>
        <mxCell id="-lJlp37_vLSV-pvQMXFQ-179" value="" style="endArrow=none;html=1;rounded=0;exitX=0.5;exitY=0;exitDx=0;exitDy=0;entryX=0.5;entryY=1;entryDx=0;entryDy=0;" edge="1" parent="1" source="-lJlp37_vLSV-pvQMXFQ-3">
          <mxGeometry relative="1" as="geometry">
            <mxPoint x="561" y="352" as="sourcePoint" />
            <mxPoint x="214.5" y="95" as="targetPoint" />
          </mxGeometry>
        </mxCell>
        <mxCell id="-lJlp37_vLSV-pvQMXFQ-180" value="&lt;font style=&quot;font-size: 18px;&quot;&gt;Title&lt;/font&gt;" style="ellipse;whiteSpace=wrap;html=1;align=center;" vertex="1" parent="1">
          <mxGeometry x="66" y="330" width="121" height="62" as="geometry" />
        </mxCell>
        <mxCell id="-lJlp37_vLSV-pvQMXFQ-181" value="" style="endArrow=none;html=1;rounded=0;exitX=0.25;exitY=1;exitDx=0;exitDy=0;entryX=1;entryY=0;entryDx=0;entryDy=0;" edge="1" parent="1" source="-lJlp37_vLSV-pvQMXFQ-3" target="-lJlp37_vLSV-pvQMXFQ-180">
          <mxGeometry relative="1" as="geometry">
            <mxPoint x="561" y="352" as="sourcePoint" />
            <mxPoint x="721" y="352" as="targetPoint" />
          </mxGeometry>
        </mxCell>
        <mxCell id="-lJlp37_vLSV-pvQMXFQ-182" value="&lt;font style=&quot;font-size: 18px;&quot;&gt;CV&lt;/font&gt;" style="ellipse;whiteSpace=wrap;html=1;align=center;" vertex="1" parent="1">
          <mxGeometry x="44" y="239" width="121" height="62" as="geometry" />
        </mxCell>
        <mxCell id="-lJlp37_vLSV-pvQMXFQ-183" value="" style="endArrow=none;html=1;rounded=0;exitX=1;exitY=0.5;exitDx=0;exitDy=0;entryX=0;entryY=0.5;entryDx=0;entryDy=0;" edge="1" parent="1" source="-lJlp37_vLSV-pvQMXFQ-182" target="-lJlp37_vLSV-pvQMXFQ-3">
          <mxGeometry relative="1" as="geometry">
            <mxPoint x="561" y="352" as="sourcePoint" />
            <mxPoint x="721" y="352" as="targetPoint" />
          </mxGeometry>
        </mxCell>
        <mxCell id="-lJlp37_vLSV-pvQMXFQ-184" value="&lt;font style=&quot;font-size: 18px;&quot;&gt;Organization&lt;/font&gt;" style="ellipse;whiteSpace=wrap;html=1;align=center;" vertex="1" parent="1">
          <mxGeometry x="187" y="374" width="121" height="62" as="geometry" />
        </mxCell>
        <mxCell id="-lJlp37_vLSV-pvQMXFQ-185" value="" style="endArrow=none;html=1;rounded=0;exitX=0.5;exitY=0;exitDx=0;exitDy=0;entryX=0.5;entryY=1;entryDx=0;entryDy=0;" edge="1" parent="1" source="-lJlp37_vLSV-pvQMXFQ-184" target="-lJlp37_vLSV-pvQMXFQ-3">
          <mxGeometry relative="1" as="geometry">
            <mxPoint x="561" y="352" as="sourcePoint" />
            <mxPoint x="721" y="352" as="targetPoint" />
          </mxGeometry>
        </mxCell>
        <mxCell id="-lJlp37_vLSV-pvQMXFQ-186" value="&lt;font style=&quot;font-size: 18px;&quot;&gt;Area of expertise&lt;/font&gt;" style="ellipse;whiteSpace=wrap;html=1;align=center;" vertex="1" parent="1">
          <mxGeometry x="330" y="451" width="121" height="62" as="geometry" />
        </mxCell>
        <mxCell id="-lJlp37_vLSV-pvQMXFQ-187" value="" style="endArrow=none;html=1;rounded=0;exitX=0.75;exitY=1;exitDx=0;exitDy=0;entryX=0;entryY=0;entryDx=0;entryDy=0;" edge="1" parent="1" source="-lJlp37_vLSV-pvQMXFQ-3" target="-lJlp37_vLSV-pvQMXFQ-186">
          <mxGeometry relative="1" as="geometry">
            <mxPoint x="561" y="352" as="sourcePoint" />
            <mxPoint x="721" y="352" as="targetPoint" />
          </mxGeometry>
        </mxCell>
        <mxCell id="-lJlp37_vLSV-pvQMXFQ-188" value="&lt;font style=&quot;font-size: 18px;&quot;&gt;Years of expertise&lt;/font&gt;" style="ellipse;whiteSpace=wrap;html=1;align=center;" vertex="1" parent="1">
          <mxGeometry x="363" y="352" width="121" height="62" as="geometry" />
        </mxCell>
        <mxCell id="-lJlp37_vLSV-pvQMXFQ-189" value="" style="endArrow=none;html=1;rounded=0;entryX=0;entryY=0;entryDx=0;entryDy=0;exitX=0.818;exitY=1.017;exitDx=0;exitDy=0;exitPerimeter=0;" edge="1" parent="1" source="-lJlp37_vLSV-pvQMXFQ-3" target="-lJlp37_vLSV-pvQMXFQ-188">
          <mxGeometry relative="1" as="geometry">
            <mxPoint x="286" y="297" as="sourcePoint" />
            <mxPoint x="721" y="352" as="targetPoint" />
          </mxGeometry>
        </mxCell>
        <mxCell id="-lJlp37_vLSV-pvQMXFQ-191" value="" style="endArrow=none;html=1;rounded=0;exitX=0.5;exitY=0;exitDx=0;exitDy=0;entryX=0.5;entryY=1;entryDx=0;entryDy=0;" edge="1" parent="1" target="-lJlp37_vLSV-pvQMXFQ-3">
          <mxGeometry relative="1" as="geometry">
            <mxPoint x="126.5" y="451" as="sourcePoint" />
            <mxPoint x="721" y="352" as="targetPoint" />
          </mxGeometry>
        </mxCell>
        <mxCell id="-lJlp37_vLSV-pvQMXFQ-192" value="&lt;font style=&quot;font-size: 18px;&quot;&gt;Gender&lt;/font&gt;" style="ellipse;whiteSpace=wrap;html=1;align=center;" vertex="1" parent="1">
          <mxGeometry x="286" y="44" width="121" height="62" as="geometry" />
        </mxCell>
        <mxCell id="-lJlp37_vLSV-pvQMXFQ-193" value="" style="endArrow=none;html=1;rounded=0;exitX=0.5;exitY=1;exitDx=0;exitDy=0;entryX=0.5;entryY=0;entryDx=0;entryDy=0;" edge="1" parent="1" source="-lJlp37_vLSV-pvQMXFQ-192" target="-lJlp37_vLSV-pvQMXFQ-3">
          <mxGeometry relative="1" as="geometry">
            <mxPoint x="561" y="319" as="sourcePoint" />
            <mxPoint x="721" y="319" as="targetPoint" />
          </mxGeometry>
        </mxCell>
        <mxCell id="-lJlp37_vLSV-pvQMXFQ-196" value="&lt;font style=&quot;font-size: 18px;&quot;&gt;ID&lt;/font&gt;" style="ellipse;whiteSpace=wrap;html=1;align=center;fontStyle=4;" vertex="1" parent="1">
          <mxGeometry x="418" y="42" width="121.5" height="66" as="geometry" />
        </mxCell>
        <mxCell id="-lJlp37_vLSV-pvQMXFQ-197" value="&lt;font style=&quot;font-size: 18px;&quot;&gt;Email&lt;/font&gt;" style="ellipse;shape=doubleEllipse;margin=3;whiteSpace=wrap;html=1;align=center;" vertex="1" parent="1">
          <mxGeometry x="154" y="44" width="121" height="55" as="geometry" />
        </mxCell>
        <mxCell id="-lJlp37_vLSV-pvQMXFQ-199" value="&lt;font style=&quot;font-size: 18px;&quot;&gt;Phone number&lt;/font&gt;" style="ellipse;shape=doubleEllipse;margin=3;whiteSpace=wrap;html=1;align=center;" vertex="1" parent="1">
          <mxGeometry y="165" width="143" height="66" as="geometry" />
        </mxCell>
        <mxCell id="-lJlp37_vLSV-pvQMXFQ-200" value="" style="endArrow=none;html=1;rounded=0;exitX=0.396;exitY=1.01;exitDx=0;exitDy=0;exitPerimeter=0;entryX=0.75;entryY=0;entryDx=0;entryDy=0;" edge="1" parent="1" source="-lJlp37_vLSV-pvQMXFQ-196" target="-lJlp37_vLSV-pvQMXFQ-3">
          <mxGeometry relative="1" as="geometry">
            <mxPoint x="561" y="308" as="sourcePoint" />
            <mxPoint x="721" y="308" as="targetPoint" />
          </mxGeometry>
        </mxCell>
        <mxCell id="-lJlp37_vLSV-pvQMXFQ-201" value="" style="endArrow=none;html=1;rounded=0;exitX=1;exitY=0.5;exitDx=0;exitDy=0;entryX=0;entryY=0.25;entryDx=0;entryDy=0;" edge="1" parent="1" source="-lJlp37_vLSV-pvQMXFQ-199" target="-lJlp37_vLSV-pvQMXFQ-3">
          <mxGeometry relative="1" as="geometry">
            <mxPoint x="462" y="308" as="sourcePoint" />
            <mxPoint x="622" y="308" as="targetPoint" />
          </mxGeometry>
        </mxCell>
        <mxCell id="-lJlp37_vLSV-pvQMXFQ-202" value="&lt;font style=&quot;font-size: 18px;&quot;&gt;ID&lt;/font&gt;" style="ellipse;whiteSpace=wrap;html=1;align=center;fontStyle=4;" vertex="1" parent="1">
          <mxGeometry x="924" y="95" width="121.5" height="66" as="geometry" />
        </mxCell>
        <mxCell id="-lJlp37_vLSV-pvQMXFQ-203" value="&lt;font style=&quot;font-size: 18px;&quot;&gt;Name&lt;/font&gt;" style="ellipse;whiteSpace=wrap;html=1;align=center;" vertex="1" parent="1">
          <mxGeometry x="1056" y="99" width="121" height="62" as="geometry" />
        </mxCell>
        <mxCell id="-lJlp37_vLSV-pvQMXFQ-204" value="" style="endArrow=none;html=1;rounded=0;exitX=0.5;exitY=1;exitDx=0;exitDy=0;entryX=0.75;entryY=0;entryDx=0;entryDy=0;" edge="1" parent="1" source="-lJlp37_vLSV-pvQMXFQ-203" target="-lJlp37_vLSV-pvQMXFQ-2">
          <mxGeometry relative="1" as="geometry">
            <mxPoint x="913" y="308" as="sourcePoint" />
            <mxPoint x="1073" y="308" as="targetPoint" />
          </mxGeometry>
        </mxCell>
        <mxCell id="-lJlp37_vLSV-pvQMXFQ-205" value="" style="endArrow=none;html=1;rounded=0;exitX=0.5;exitY=1;exitDx=0;exitDy=0;entryX=0.25;entryY=0;entryDx=0;entryDy=0;" edge="1" parent="1" source="-lJlp37_vLSV-pvQMXFQ-202" target="-lJlp37_vLSV-pvQMXFQ-2">
          <mxGeometry relative="1" as="geometry">
            <mxPoint x="913" y="308" as="sourcePoint" />
            <mxPoint x="1073" y="308" as="targetPoint" />
          </mxGeometry>
        </mxCell>
        <mxCell id="-lJlp37_vLSV-pvQMXFQ-207" value="" style="endArrow=none;html=1;rounded=0;entryX=0.333;entryY=0.894;entryDx=0;entryDy=0;entryPerimeter=0;exitX=0.885;exitY=0.017;exitDx=0;exitDy=0;exitPerimeter=0;" edge="1" parent="1" source="-lJlp37_vLSV-pvQMXFQ-2">
          <mxGeometry relative="1" as="geometry">
            <mxPoint x="913" y="308" as="sourcePoint" />
            <mxPoint x="1231.9560000000001" y="187.00400000000002" as="targetPoint" />
          </mxGeometry>
        </mxCell>
        <mxCell id="-lJlp37_vLSV-pvQMXFQ-209" value="&lt;font style=&quot;font-size: 18px;&quot;&gt;Budget&lt;/font&gt;" style="ellipse;whiteSpace=wrap;html=1;align=center;" vertex="1" parent="1">
          <mxGeometry x="1254" y="220" width="121" height="55" as="geometry" />
        </mxCell>
        <mxCell id="-lJlp37_vLSV-pvQMXFQ-210" value="" style="endArrow=none;html=1;rounded=0;entryX=0;entryY=0.5;entryDx=0;entryDy=0;exitX=1;exitY=0.5;exitDx=0;exitDy=0;" edge="1" parent="1" source="-lJlp37_vLSV-pvQMXFQ-2" target="-lJlp37_vLSV-pvQMXFQ-209">
          <mxGeometry relative="1" as="geometry">
            <mxPoint x="913" y="308" as="sourcePoint" />
            <mxPoint x="1073" y="308" as="targetPoint" />
          </mxGeometry>
        </mxCell>
        <mxCell id="-lJlp37_vLSV-pvQMXFQ-212" value="&lt;font style=&quot;font-size: 18px;&quot;&gt;Start date&lt;/font&gt;" style="ellipse;whiteSpace=wrap;html=1;align=center;" vertex="1" parent="1">
          <mxGeometry x="550" y="66" width="121" height="55" as="geometry" />
        </mxCell>
        <mxCell id="-lJlp37_vLSV-pvQMXFQ-213" value="&lt;font style=&quot;font-size: 18px;&quot;&gt;End date&lt;/font&gt;" style="ellipse;whiteSpace=wrap;html=1;align=center;" vertex="1" parent="1">
          <mxGeometry x="660" y="22" width="121" height="55" as="geometry" />
        </mxCell>
        <mxCell id="-lJlp37_vLSV-pvQMXFQ-214" value="" style="endArrow=none;html=1;rounded=0;exitX=0;exitY=0;exitDx=0;exitDy=0;entryX=0.5;entryY=1;entryDx=0;entryDy=0;" edge="1" parent="1" source="-lJlp37_vLSV-pvQMXFQ-225" target="-lJlp37_vLSV-pvQMXFQ-212">
          <mxGeometry relative="1" as="geometry">
            <mxPoint x="913" y="308" as="sourcePoint" />
            <mxPoint x="1073" y="308" as="targetPoint" />
          </mxGeometry>
        </mxCell>
        <mxCell id="-lJlp37_vLSV-pvQMXFQ-215" value="" style="endArrow=none;html=1;rounded=0;entryX=0.5;entryY=1;entryDx=0;entryDy=0;exitX=1;exitY=0;exitDx=0;exitDy=0;" edge="1" parent="1" source="-lJlp37_vLSV-pvQMXFQ-225" target="-lJlp37_vLSV-pvQMXFQ-213">
          <mxGeometry relative="1" as="geometry">
            <mxPoint x="913" y="308" as="sourcePoint" />
            <mxPoint x="1073" y="308" as="targetPoint" />
          </mxGeometry>
        </mxCell>
        <mxCell id="-lJlp37_vLSV-pvQMXFQ-217" value="&lt;font style=&quot;font-size: 18px;&quot;&gt;&amp;nbsp;estimated hours&lt;/font&gt;" style="ellipse;whiteSpace=wrap;html=1;align=center;" vertex="1" parent="1">
          <mxGeometry x="1101" y="451" width="143" height="66" as="geometry" />
        </mxCell>
        <mxCell id="-lJlp37_vLSV-pvQMXFQ-218" value="" style="endArrow=none;html=1;rounded=0;entryX=0.438;entryY=0.005;entryDx=0;entryDy=0;entryPerimeter=0;exitX=0.75;exitY=1;exitDx=0;exitDy=0;" edge="1" parent="1" source="-lJlp37_vLSV-pvQMXFQ-2" target="-lJlp37_vLSV-pvQMXFQ-217">
          <mxGeometry relative="1" as="geometry">
            <mxPoint x="913" y="308" as="sourcePoint" />
            <mxPoint x="1073" y="308" as="targetPoint" />
          </mxGeometry>
        </mxCell>
        <mxCell id="-lJlp37_vLSV-pvQMXFQ-220" value="&lt;font style=&quot;font-size: 18px;&quot;&gt;Organization&lt;/font&gt;" style="ellipse;whiteSpace=wrap;html=1;align=center;" vertex="1" parent="1">
          <mxGeometry x="968" y="436" width="121" height="55" as="geometry" />
        </mxCell>
        <mxCell id="-lJlp37_vLSV-pvQMXFQ-221" value="" style="endArrow=none;html=1;rounded=0;exitX=0.5;exitY=0;exitDx=0;exitDy=0;entryX=0.5;entryY=1;entryDx=0;entryDy=0;" edge="1" parent="1" source="-lJlp37_vLSV-pvQMXFQ-220" target="-lJlp37_vLSV-pvQMXFQ-2">
          <mxGeometry relative="1" as="geometry">
            <mxPoint x="913" y="308" as="sourcePoint" />
            <mxPoint x="1056" y="286" as="targetPoint" />
          </mxGeometry>
        </mxCell>
        <mxCell id="-lJlp37_vLSV-pvQMXFQ-225" value="&lt;font style=&quot;font-size: 18px;&quot;&gt;Work&lt;/font&gt;" style="shape=rhombus;double=1;perimeter=rhombusPerimeter;whiteSpace=wrap;html=1;align=center;" vertex="1" parent="1">
          <mxGeometry x="583" y="223.5" width="165" height="93" as="geometry" />
        </mxCell>
        <mxCell id="-lJlp37_vLSV-pvQMXFQ-226" value="" style="edgeStyle=entityRelationEdgeStyle;fontSize=12;html=1;endArrow=ERmany;rounded=0;exitX=1;exitY=0.5;exitDx=0;exitDy=0;entryX=0;entryY=0.5;entryDx=0;entryDy=0;" edge="1" parent="1" source="-lJlp37_vLSV-pvQMXFQ-3" target="-lJlp37_vLSV-pvQMXFQ-225">
          <mxGeometry width="100" height="100" relative="1" as="geometry">
            <mxPoint x="660" y="353" as="sourcePoint" />
            <mxPoint x="760" y="253" as="targetPoint" />
          </mxGeometry>
        </mxCell>
        <mxCell id="-lJlp37_vLSV-pvQMXFQ-227" value="" style="edgeStyle=entityRelationEdgeStyle;fontSize=12;html=1;endArrow=ERoneToMany;rounded=0;entryX=1;entryY=0.5;entryDx=0;entryDy=0;" edge="1" parent="1" source="-lJlp37_vLSV-pvQMXFQ-2" target="-lJlp37_vLSV-pvQMXFQ-225">
          <mxGeometry width="100" height="100" relative="1" as="geometry">
            <mxPoint x="715" y="583" as="sourcePoint" />
            <mxPoint x="858" y="308" as="targetPoint" />
          </mxGeometry>
        </mxCell>
        <mxCell id="-lJlp37_vLSV-pvQMXFQ-229" value="&lt;font style=&quot;font-size: 18px;&quot;&gt;Hourly rate&lt;/font&gt;" style="ellipse;whiteSpace=wrap;html=1;align=center;" vertex="1" parent="1">
          <mxGeometry x="506" y="374" width="121" height="62" as="geometry" />
        </mxCell>
        <mxCell id="-lJlp37_vLSV-pvQMXFQ-230" value="" style="endArrow=none;html=1;rounded=0;exitX=0.5;exitY=0;exitDx=0;exitDy=0;entryX=0;entryY=1;entryDx=0;entryDy=0;" edge="1" parent="1" source="-lJlp37_vLSV-pvQMXFQ-229" target="-lJlp37_vLSV-pvQMXFQ-225">
          <mxGeometry relative="1" as="geometry">
            <mxPoint x="638" y="308" as="sourcePoint" />
            <mxPoint x="798" y="308" as="targetPoint" />
          </mxGeometry>
        </mxCell>
        <mxCell id="-lJlp37_vLSV-pvQMXFQ-231" value="&lt;font style=&quot;font-size: 18px;&quot;&gt;Satisfaction rate&lt;/font&gt;" style="ellipse;whiteSpace=wrap;html=1;align=center;" vertex="1" parent="1">
          <mxGeometry x="660" y="389" width="121" height="62" as="geometry" />
        </mxCell>
        <mxCell id="-lJlp37_vLSV-pvQMXFQ-232" value="" style="endArrow=none;html=1;rounded=0;exitX=0.5;exitY=0;exitDx=0;exitDy=0;entryX=1;entryY=1;entryDx=0;entryDy=0;" edge="1" parent="1" source="-lJlp37_vLSV-pvQMXFQ-231" target="-lJlp37_vLSV-pvQMXFQ-225">
          <mxGeometry relative="1" as="geometry">
            <mxPoint x="638" y="308" as="sourcePoint" />
            <mxPoint x="798" y="308" as="targetPoint" />
          </mxGeometry>
        </mxCell>
        <mxCell id="-lJlp37_vLSV-pvQMXFQ-233" value="&lt;font style=&quot;font-size: 18px;&quot;&gt;Hour per project&lt;/font&gt;" style="ellipse;whiteSpace=wrap;html=1;align=center;" vertex="1" parent="1">
          <mxGeometry x="814" y="363" width="121" height="62" as="geometry" />
        </mxCell>
        <mxCell id="-lJlp37_vLSV-pvQMXFQ-234" value="" style="endArrow=none;html=1;rounded=0;entryX=0;entryY=0;entryDx=0;entryDy=0;exitX=1;exitY=1;exitDx=0;exitDy=0;" edge="1" parent="1" source="-lJlp37_vLSV-pvQMXFQ-225" target="-lJlp37_vLSV-pvQMXFQ-233">
          <mxGeometry relative="1" as="geometry">
            <mxPoint x="682" y="308" as="sourcePoint" />
            <mxPoint x="842" y="308" as="targetPoint" />
          </mxGeometry>
        </mxCell>
        <mxCell id="-lJlp37_vLSV-pvQMXFQ-237" value="" style="endArrow=none;html=1;rounded=0;entryX=0;entryY=0.5;entryDx=0;entryDy=0;" edge="1" parent="1">
          <mxGeometry relative="1" as="geometry">
            <mxPoint x="1100" y="275" as="sourcePoint" />
            <mxPoint x="1221.0000000000032" y="328.5" as="targetPoint" />
          </mxGeometry>
        </mxCell>
        <mxCell id="ARLuHoA5WkAl8gvBRw-s-1" value="&lt;font style=&quot;font-size: 18px;&quot;&gt;Social media&lt;/font&gt;" style="ellipse;shape=doubleEllipse;margin=3;whiteSpace=wrap;html=1;align=center;" vertex="1" parent="1">
          <mxGeometry x="55" y="449" width="143" height="66" as="geometry" />
        </mxCell>
        <mxCell id="ARLuHoA5WkAl8gvBRw-s-2" value="&lt;font style=&quot;font-size: 18px;&quot;&gt;End date&lt;/font&gt;" style="ellipse;whiteSpace=wrap;html=1;align=center;" vertex="1" parent="1">
          <mxGeometry x="1221" y="308" width="121" height="55" as="geometry" />
        </mxCell>
        <mxCell id="ARLuHoA5WkAl8gvBRw-s-3" value="&lt;font style=&quot;font-size: 18px;&quot;&gt;Number of sessions&lt;/font&gt;" style="ellipse;whiteSpace=wrap;html=1;align=center;" vertex="1" parent="1">
          <mxGeometry x="1199" y="44" width="132" height="66" as="geometry" />
        </mxCell>
        <mxCell id="ARLuHoA5WkAl8gvBRw-s-4" value="" style="endArrow=none;html=1;rounded=0;entryX=0.5;entryY=1;entryDx=0;entryDy=0;" edge="1" parent="1" target="ARLuHoA5WkAl8gvBRw-s-3">
          <mxGeometry relative="1" as="geometry">
            <mxPoint x="1078" y="249" as="sourcePoint" />
            <mxPoint x="1007" y="308" as="targetPoint" />
          </mxGeometry>
        </mxCell>
        <mxCell id="ARLuHoA5WkAl8gvBRw-s-5" value="&lt;font style=&quot;font-size: 18px;&quot;&gt;Start date&lt;/font&gt;" style="ellipse;whiteSpace=wrap;html=1;align=center;" vertex="1" parent="1">
          <mxGeometry x="1221" y="154" width="121" height="55" as="geometry" />
        </mxCell>
        <mxCell id="ARLuHoA5WkAl8gvBRw-s-6" value="&lt;font style=&quot;font-size: 18px;&quot;&gt;Number of sessions&lt;/font&gt;" style="ellipse;whiteSpace=wrap;html=1;align=center;" vertex="1" parent="1">
          <mxGeometry x="814" y="16.5" width="132" height="66" as="geometry" />
        </mxCell>
        <mxCell id="ARLuHoA5WkAl8gvBRw-s-7" value="" style="endArrow=none;html=1;rounded=0;entryX=0.5;entryY=1;entryDx=0;entryDy=0;exitX=1;exitY=0;exitDx=0;exitDy=0;" edge="1" parent="1" source="-lJlp37_vLSV-pvQMXFQ-225" target="ARLuHoA5WkAl8gvBRw-s-6">
          <mxGeometry relative="1" as="geometry">
            <mxPoint x="704" y="308" as="sourcePoint" />
            <mxPoint x="864" y="308" as="targetPoint" />
          </mxGeometry>
        </mxCell>
      </root>
    </mxGraphModel>
  </diagram>
  <diagram id="znhydlwGK0Yi2V00lYWk" name="Schema">
    <mxGraphModel dx="880" dy="468" grid="1" gridSize="11" guides="1" tooltips="1" connect="1" arrows="1" fold="1" page="1" pageScale="1" pageWidth="1700" pageHeight="1100" math="0" shadow="0">
      <root>
        <mxCell id="0" />
        <mxCell id="1" parent="0" />
        <mxCell id="1UkKMclis58Q_67IOI8B-1" value="T_ID" style="whiteSpace=wrap;html=1;align=center;" vertex="1" parent="1">
          <mxGeometry x="44" y="88" width="100" height="44" as="geometry" />
        </mxCell>
        <mxCell id="1UkKMclis58Q_67IOI8B-2" value="" style="endArrow=none;html=1;rounded=0;" edge="1" parent="1">
          <mxGeometry relative="1" as="geometry">
            <mxPoint x="69" y="121" as="sourcePoint" />
            <mxPoint x="119" y="121" as="targetPoint" />
          </mxGeometry>
        </mxCell>
        <mxCell id="1UkKMclis58Q_67IOI8B-3" value="Name" style="whiteSpace=wrap;html=1;align=center;" vertex="1" parent="1">
          <mxGeometry x="144" y="88" width="100" height="44" as="geometry" />
        </mxCell>
        <mxCell id="1UkKMclis58Q_67IOI8B-4" value="&lt;font style=&quot;font-size: 18px;&quot;&gt;Trainer&lt;/font&gt;" style="text;html=1;align=center;verticalAlign=middle;resizable=0;points=[];autosize=1;strokeColor=none;fillColor=none;" vertex="1" parent="1">
          <mxGeometry x="33" y="55" width="77" height="33" as="geometry" />
        </mxCell>
        <mxCell id="1UkKMclis58Q_67IOI8B-5" value="Gender" style="whiteSpace=wrap;html=1;align=center;" vertex="1" parent="1">
          <mxGeometry x="244" y="88" width="100" height="44" as="geometry" />
        </mxCell>
        <mxCell id="1UkKMclis58Q_67IOI8B-10" value="Email" style="whiteSpace=wrap;html=1;align=center;" vertex="1" parent="1">
          <mxGeometry x="344" y="88" width="100" height="44" as="geometry" />
        </mxCell>
        <mxCell id="1UkKMclis58Q_67IOI8B-14" value="Phone" style="whiteSpace=wrap;html=1;align=center;" vertex="1" parent="1">
          <mxGeometry x="444" y="88" width="100" height="44" as="geometry" />
        </mxCell>
        <mxCell id="1UkKMclis58Q_67IOI8B-16" value="Title" style="whiteSpace=wrap;html=1;align=center;" vertex="1" parent="1">
          <mxGeometry x="544" y="88" width="100" height="44" as="geometry" />
        </mxCell>
        <mxCell id="1UkKMclis58Q_67IOI8B-17" value="A.O.E" style="whiteSpace=wrap;html=1;align=center;" vertex="1" parent="1">
          <mxGeometry x="644" y="88" width="100" height="44" as="geometry" />
        </mxCell>
        <mxCell id="1UkKMclis58Q_67IOI8B-18" value="Y.O.E" style="whiteSpace=wrap;html=1;align=center;" vertex="1" parent="1">
          <mxGeometry x="744" y="88" width="100" height="44" as="geometry" />
        </mxCell>
        <mxCell id="1UkKMclis58Q_67IOI8B-19" value="C.V" style="whiteSpace=wrap;html=1;align=center;" vertex="1" parent="1">
          <mxGeometry x="844" y="88" width="100" height="44" as="geometry" />
        </mxCell>
        <mxCell id="1UkKMclis58Q_67IOI8B-20" value="Social Meddia" style="whiteSpace=wrap;html=1;align=center;" vertex="1" parent="1">
          <mxGeometry x="944" y="88" width="100" height="44" as="geometry" />
        </mxCell>
        <mxCell id="1UkKMclis58Q_67IOI8B-21" value="Organization" style="whiteSpace=wrap;html=1;align=center;" vertex="1" parent="1">
          <mxGeometry x="1044" y="88" width="100" height="44" as="geometry" />
        </mxCell>
        <mxCell id="1UkKMclis58Q_67IOI8B-22" value="&lt;font style=&quot;font-size: 18px;&quot;&gt;Working&lt;/font&gt;" style="text;html=1;align=center;verticalAlign=middle;resizable=0;points=[];autosize=1;strokeColor=none;fillColor=none;" vertex="1" parent="1">
          <mxGeometry x="33" y="184" width="88" height="33" as="geometry" />
        </mxCell>
        <mxCell id="1UkKMclis58Q_67IOI8B-23" value="Start date" style="whiteSpace=wrap;html=1;align=center;" vertex="1" parent="1">
          <mxGeometry x="244" y="220" width="100" height="44" as="geometry" />
        </mxCell>
        <mxCell id="1UkKMclis58Q_67IOI8B-24" value="T_ID" style="whiteSpace=wrap;html=1;align=center;" vertex="1" parent="1">
          <mxGeometry x="44" y="220" width="100" height="44" as="geometry" />
        </mxCell>
        <mxCell id="1UkKMclis58Q_67IOI8B-25" value="" style="endArrow=none;html=1;rounded=0;" edge="1" parent="1">
          <mxGeometry relative="1" as="geometry">
            <mxPoint x="69" y="253" as="sourcePoint" />
            <mxPoint x="119" y="253" as="targetPoint" />
          </mxGeometry>
        </mxCell>
        <mxCell id="1UkKMclis58Q_67IOI8B-26" value="P_ID" style="whiteSpace=wrap;html=1;align=center;" vertex="1" parent="1">
          <mxGeometry x="144" y="220" width="100" height="44" as="geometry" />
        </mxCell>
        <mxCell id="1UkKMclis58Q_67IOI8B-27" value="" style="endArrow=none;html=1;rounded=0;" edge="1" parent="1">
          <mxGeometry relative="1" as="geometry">
            <mxPoint x="169" y="253" as="sourcePoint" />
            <mxPoint x="219" y="253" as="targetPoint" />
          </mxGeometry>
        </mxCell>
        <mxCell id="1UkKMclis58Q_67IOI8B-29" value="End date" style="whiteSpace=wrap;html=1;align=center;" vertex="1" parent="1">
          <mxGeometry x="344" y="220" width="100" height="44" as="geometry" />
        </mxCell>
        <mxCell id="1UkKMclis58Q_67IOI8B-30" value="Hourly rate" style="whiteSpace=wrap;html=1;align=center;" vertex="1" parent="1">
          <mxGeometry x="444" y="220" width="100" height="44" as="geometry" />
        </mxCell>
        <mxCell id="1UkKMclis58Q_67IOI8B-31" value="Satisfaction rate" style="whiteSpace=wrap;html=1;align=center;" vertex="1" parent="1">
          <mxGeometry x="544" y="220" width="100" height="44" as="geometry" />
        </mxCell>
        <mxCell id="1UkKMclis58Q_67IOI8B-32" value="No. of sessions" style="whiteSpace=wrap;html=1;align=center;" vertex="1" parent="1">
          <mxGeometry x="644" y="220" width="100" height="44" as="geometry" />
        </mxCell>
        <mxCell id="1UkKMclis58Q_67IOI8B-33" value="Hour per project" style="whiteSpace=wrap;html=1;align=center;" vertex="1" parent="1">
          <mxGeometry x="744" y="220" width="100" height="44" as="geometry" />
        </mxCell>
        <mxCell id="45Q3yizNFeWsh2WmiwKw-1" value="&lt;font style=&quot;font-size: 18px;&quot;&gt;Project&lt;/font&gt;" style="text;html=1;align=center;verticalAlign=middle;resizable=0;points=[];autosize=1;strokeColor=none;fillColor=none;" vertex="1" parent="1">
          <mxGeometry x="44" y="319" width="77" height="33" as="geometry" />
        </mxCell>
        <mxCell id="45Q3yizNFeWsh2WmiwKw-2" value="P_ID" style="whiteSpace=wrap;html=1;align=center;" vertex="1" parent="1">
          <mxGeometry x="44" y="352" width="100" height="44" as="geometry" />
        </mxCell>
        <mxCell id="45Q3yizNFeWsh2WmiwKw-3" value="" style="endArrow=none;html=1;rounded=0;" edge="1" parent="1">
          <mxGeometry relative="1" as="geometry">
            <mxPoint x="69" y="385" as="sourcePoint" />
            <mxPoint x="119" y="385" as="targetPoint" />
          </mxGeometry>
        </mxCell>
        <mxCell id="45Q3yizNFeWsh2WmiwKw-5" value="Name" style="whiteSpace=wrap;html=1;align=center;" vertex="1" parent="1">
          <mxGeometry x="144" y="352" width="100" height="44" as="geometry" />
        </mxCell>
        <mxCell id="45Q3yizNFeWsh2WmiwKw-7" value="Start date" style="whiteSpace=wrap;html=1;align=center;" vertex="1" parent="1">
          <mxGeometry x="244" y="352" width="100" height="44" as="geometry" />
        </mxCell>
        <mxCell id="45Q3yizNFeWsh2WmiwKw-8" value="End date" style="whiteSpace=wrap;html=1;align=center;" vertex="1" parent="1">
          <mxGeometry x="344" y="352" width="100" height="44" as="geometry" />
        </mxCell>
        <mxCell id="45Q3yizNFeWsh2WmiwKw-9" value="Organization" style="whiteSpace=wrap;html=1;align=center;" vertex="1" parent="1">
          <mxGeometry x="444" y="352" width="100" height="44" as="geometry" />
        </mxCell>
        <mxCell id="45Q3yizNFeWsh2WmiwKw-10" value="Estimated hours" style="whiteSpace=wrap;html=1;align=center;" vertex="1" parent="1">
          <mxGeometry x="544" y="352" width="100" height="44" as="geometry" />
        </mxCell>
        <mxCell id="45Q3yizNFeWsh2WmiwKw-11" value="No. of sessions" style="whiteSpace=wrap;html=1;align=center;" vertex="1" parent="1">
          <mxGeometry x="644" y="352" width="100" height="44" as="geometry" />
        </mxCell>
        <mxCell id="45Q3yizNFeWsh2WmiwKw-12" value="Budget" style="whiteSpace=wrap;html=1;align=center;" vertex="1" parent="1">
          <mxGeometry x="744" y="352" width="100" height="44" as="geometry" />
        </mxCell>
        <mxCell id="eny_NAsBusuS5twb-0Lm-1" value="" style="endArrow=classic;html=1;rounded=0;exitX=0.32;exitY=1;exitDx=0;exitDy=0;exitPerimeter=0;entryX=0.75;entryY=0;entryDx=0;entryDy=0;" edge="1" parent="1" source="1UkKMclis58Q_67IOI8B-26" target="45Q3yizNFeWsh2WmiwKw-2">
          <mxGeometry width="50" height="50" relative="1" as="geometry">
            <mxPoint x="319" y="292" as="sourcePoint" />
            <mxPoint x="198" y="297" as="targetPoint" />
            <Array as="points">
              <mxPoint x="176" y="308" />
              <mxPoint x="121" y="308" />
            </Array>
          </mxGeometry>
        </mxCell>
        <mxCell id="eny_NAsBusuS5twb-0Lm-2" value="" style="endArrow=classic;html=1;rounded=0;exitX=0.75;exitY=0;exitDx=0;exitDy=0;entryX=0.75;entryY=1;entryDx=0;entryDy=0;" edge="1" parent="1" source="1UkKMclis58Q_67IOI8B-24" target="1UkKMclis58Q_67IOI8B-1">
          <mxGeometry width="50" height="50" relative="1" as="geometry">
            <mxPoint x="319" y="292" as="sourcePoint" />
            <mxPoint x="369" y="242" as="targetPoint" />
          </mxGeometry>
        </mxCell>
      </root>
    </mxGraphModel>
  </diagram>
</mxfile>
